<svg xmlns="http://www.w3.org/2000/svg" viewBox="0 0 152 40" width="152" height="40" role="img" aria-label="Maña Maps">
  <title>Maña Maps</title>
  <!-- Icono: blob orgánico (mismo path que favicon/header) -->
  <g transform="translate(2 2) scale(0.18)">
    <path fill="#30363B" stroke="rgba(1,1,1,0.5)" stroke-width="1"
      d="M42.3,-74.7C55.1,-65.8,66.1,-55.2,74.7,-42.4C83.2,-29.7,89.3,-14.8,89.7,0.2C90,15.2,84.6,30.5,74.3,40.2C64,49.8,48.7,54,35.6,62.1C22.4,70.2,11.2,82.3,-0.8,83.6C-12.7,84.9,-25.4,75.4,-36.1,65.9C-46.9,56.4,-55.6,46.8,-61.3,35.8C-66.9,24.8,-69.5,12.4,-72,-1.4C-74.5,-15.3,-76.9,-30.5,-70.9,-41C-64.9,-51.4,-50.6,-57.1,-37.4,-65.8C-24.2,-74.5,-12.1,-86.1,1.3,-88.4C14.7,-90.7,29.5,-83.6,42.3,-74.7Z"
      transform="translate(100 100)"/>
  </g>
  <!-- M̃ centrado en el icono -->
  <text x="20" y="24.5" text-anchor="middle" font-family="Tahoma, Verdana, sans-serif" font-weight="900" font-size="15" fill="#ffffff">M&#771;</text>
  <!-- Wordmark: Maña + Maps superíndice -->
  <text x="48" y="26" font-family="Tahoma, Verdana, sans-serif" font-weight="800" font-size="18" fill="#111214" letter-spacing="-0.02em">Ma&#241;a<tspan font-size="11" font-weight="600" fill="#5f6670" dx="3" dy="-7.4">Maps</tspan></text>
</svg>
