<svg xmlns="http://www.w3.org/2000/svg" viewBox="0 0 512 512" role="img" aria-labelledby="title desc">
  <title id="title">Maña Maps app icon</title>
  <desc id="desc">Dark organic Maña mark with a white M and tilde.</desc>
  <path fill="#30363B" d="M108.3,64.8C145.9,39.2,188.6,27.1,232.6,33.8C276.7,40.4,322,65.8,356.6,96.1C391.2,126.4,415,161.6,428.8,200.3C442.6,239,446.4,281.2,431.8,318.5C417.2,355.8,384.2,388.2,346.2,410.2C308.2,432.2,265.2,443.8,222.1,439.2C179,434.6,135.8,413.8,101.6,383C67.4,352.2,42.2,311.4,35.4,268.6C28.6,225.8,40.2,181,57.6,143.4C75,105.8,70.7,90.4,108.3,64.8Z"/>
  <path fill="none" stroke="#ffffff" stroke-width="42" stroke-linecap="round" stroke-linejoin="round" d="M150 340V174l106 136 106-136v166"/>
  <path fill="none" stroke="#ffffff" stroke-width="28" stroke-linecap="round" d="M190 126c39-31 84-31 132 0"/>
</svg>
