<svg xmlns="http://www.w3.org/2000/svg" viewBox="0 0 512 512" role="img" aria-labelledby="title desc">
  <title id="title">Maña Maps maskable app icon</title>
  <desc id="desc">Official Maña Maps mark with maskable safe-zone padding.</desc>
  <rect width="512" height="512" rx="96" fill="#f5f5f7"/>
  <g transform="translate(56 56) scale(2)">
    <path fill="#30363B" d="M42.3,-74.7C55.1,-65.8,66.1,-55.2,74.7,-42.4C83.2,-29.7,89.3,-14.8,89.7,0.2C90,15.2,84.6,30.5,74.3,40.2C64,49.8,48.7,54,35.6,62.1C22.4,70.2,11.2,82.3,-0.8,83.6C-12.7,84.9,-25.4,75.4,-36.1,65.9C-46.9,56.4,-55.6,46.8,-61.3,35.8C-66.9,24.8,-69.5,12.4,-72,-1.4C-74.5,-15.3,-76.9,-30.5,-70.9,-41C-64.9,-51.4,-50.6,-57.1,-37.4,-65.8C-24.2,-74.5,-12.1,-86.1,1.3,-88.4C14.7,-90.7,29.5,-83.6,42.3,-74.7Z" transform="translate(100 100)"/>
    <text x="100" y="118" text-anchor="middle" font-family="Tahoma,Verdana,sans-serif" font-weight="900" font-size="72" fill="white">M&#x303;</text>
  </g>
</svg>
